<mxfile host="app.diagrams.net" agent="Mozilla/5.0 (Macintosh; Intel Mac OS X 10_15_7) AppleWebKit/537.36 (KHTML, like Gecko) Chrome/129.0.0.0 Safari/537.36" version="24.7.17">
  <diagram name="Page-1" id="E3tEYf8C2fbTxAo7UlWD">
    <mxGraphModel dx="738" dy="615" grid="1" gridSize="10" guides="1" tooltips="1" connect="1" arrows="1" fold="1" page="1" pageScale="1" pageWidth="850" pageHeight="1100" math="0" shadow="0">
      <root>
        <mxCell id="0" />
        <mxCell id="1" parent="0" />
        <mxCell id="fe1OwJ5l3mNg4Ry9MPT7-13" value="" style="rounded=0;whiteSpace=wrap;html=1;" vertex="1" parent="1">
          <mxGeometry x="10" y="30" width="640" height="430" as="geometry" />
        </mxCell>
        <mxCell id="fe1OwJ5l3mNg4Ry9MPT7-2" style="edgeStyle=orthogonalEdgeStyle;rounded=0;orthogonalLoop=1;jettySize=auto;html=1;" edge="1" parent="1" source="fe1OwJ5l3mNg4Ry9MPT7-1" target="fe1OwJ5l3mNg4Ry9MPT7-3">
          <mxGeometry relative="1" as="geometry">
            <mxPoint x="250" y="120" as="targetPoint" />
          </mxGeometry>
        </mxCell>
        <mxCell id="fe1OwJ5l3mNg4Ry9MPT7-1" value="CLIENT/USER" style="whiteSpace=wrap;html=1;aspect=fixed;" vertex="1" parent="1">
          <mxGeometry x="30" y="80" width="80" height="80" as="geometry" />
        </mxCell>
        <mxCell id="fe1OwJ5l3mNg4Ry9MPT7-5" style="edgeStyle=orthogonalEdgeStyle;rounded=0;orthogonalLoop=1;jettySize=auto;html=1;" edge="1" parent="1" source="fe1OwJ5l3mNg4Ry9MPT7-3">
          <mxGeometry relative="1" as="geometry">
            <mxPoint x="480" y="120" as="targetPoint" />
          </mxGeometry>
        </mxCell>
        <mxCell id="fe1OwJ5l3mNg4Ry9MPT7-3" value="API / Producer" style="whiteSpace=wrap;html=1;aspect=fixed;" vertex="1" parent="1">
          <mxGeometry x="260" y="80" width="80" height="80" as="geometry" />
        </mxCell>
        <mxCell id="fe1OwJ5l3mNg4Ry9MPT7-4" value="Web Sockets" style="text;html=1;align=center;verticalAlign=middle;whiteSpace=wrap;rounded=0;" vertex="1" parent="1">
          <mxGeometry x="170" y="90" width="60" height="30" as="geometry" />
        </mxCell>
        <mxCell id="fe1OwJ5l3mNg4Ry9MPT7-10" value="" style="edgeStyle=orthogonalEdgeStyle;rounded=0;orthogonalLoop=1;jettySize=auto;html=1;" edge="1" parent="1" source="fe1OwJ5l3mNg4Ry9MPT7-6" target="fe1OwJ5l3mNg4Ry9MPT7-9">
          <mxGeometry relative="1" as="geometry" />
        </mxCell>
        <mxCell id="fe1OwJ5l3mNg4Ry9MPT7-6" value="" style="whiteSpace=wrap;html=1;aspect=fixed;" vertex="1" parent="1">
          <mxGeometry x="450" y="50" width="140" height="140" as="geometry" />
        </mxCell>
        <mxCell id="fe1OwJ5l3mNg4Ry9MPT7-7" value="Queue" style="text;html=1;align=center;verticalAlign=middle;whiteSpace=wrap;rounded=0;" vertex="1" parent="1">
          <mxGeometry x="380" y="90" width="60" height="30" as="geometry" />
        </mxCell>
        <mxCell id="fe1OwJ5l3mNg4Ry9MPT7-8" value="Redis/ Json Redis/&lt;div&gt;managing sevice&lt;/div&gt;" style="text;html=1;align=center;verticalAlign=middle;whiteSpace=wrap;rounded=0;" vertex="1" parent="1">
          <mxGeometry x="460" y="70" width="120" height="100" as="geometry" />
        </mxCell>
        <mxCell id="fe1OwJ5l3mNg4Ry9MPT7-12" value="" style="edgeStyle=orthogonalEdgeStyle;rounded=0;orthogonalLoop=1;jettySize=auto;html=1;" edge="1" parent="1" source="fe1OwJ5l3mNg4Ry9MPT7-9" target="fe1OwJ5l3mNg4Ry9MPT7-11">
          <mxGeometry relative="1" as="geometry" />
        </mxCell>
        <mxCell id="fe1OwJ5l3mNg4Ry9MPT7-9" value="Work / Consumer" style="whiteSpace=wrap;html=1;aspect=fixed;" vertex="1" parent="1">
          <mxGeometry x="450" y="270" width="140" height="140" as="geometry" />
        </mxCell>
        <mxCell id="fe1OwJ5l3mNg4Ry9MPT7-11" value="Hugging face Interface/ External API" style="whiteSpace=wrap;html=1;aspect=fixed;" vertex="1" parent="1">
          <mxGeometry x="230" y="270" width="140" height="140" as="geometry" />
        </mxCell>
        <mxCell id="fe1OwJ5l3mNg4Ry9MPT7-14" value="AWS EBS/EC2/AppRunner" style="whiteSpace=wrap;html=1;aspect=fixed;" vertex="1" parent="1">
          <mxGeometry x="280" y="470" width="170" height="170" as="geometry" />
        </mxCell>
      </root>
    </mxGraphModel>
  </diagram>
</mxfile>
